#!OML:ASF I:\Actors\actors\Patient Classification 1\Patient 1\Session 1\Subject1.ASF
:FULLY-SPECIFIED
:DEGREES
229
root -0.360913 17.4799 7.4757 5.94441 -0.598347 -7.81278
lowerback 0.627992 0.950852 6.11595
upperback -8.49574 1.69 0.791478
thorax -9.20645 0.398756 -2.71761
lowerneck -9.76745 -4.3689 -3.11552
upperneck 26.4007 -8.09457 9.02641
head 10.5676 -3.04801 2.77356
rclavicle -1.45113e-014 1.90833e-014
rhumerus -42.8391 -3.09481 -91.0502
rradius 29.8708
rwrist 26.595
rhand 21.3003 -37.9807
rfingers 7.12502
rthumb 45.7444 -61.1809
lclavicle -1.45113e-014 1.90833e-014
lhumerus -19.2241 -22.0418 98.8337
lradius 91.8642
lwrist 22.1137
lhand -20.9714 -8.4034
lfingers 7.12502
lthumb 5.40198 21.5077
rfemur 0.667035 23.8867 26.8529
rtibia 2.18115
rfoot -12.25 -22.286
rtoes 2.12096
lfemur 9.20182 -40.3073 -16.427
ltibia -4.75966
lfoot -14.1291 46.0692
ltoes 3.3482
230
root -0.359881 17.4802 7.47997 5.92354 -0.653381 -7.78012
lowerback 0.454688 0.955632 5.96365
upperback -8.41365 1.67849 0.896454
thorax -9.01708 0.417 -2.51588
lowerneck -9.87914 -4.37478 -3.20055
upperneck 26.5228 -8.04621 8.84407
head 10.6256 -3.04758 2.72821
rclavicle 3.18055e-015 -1.31198e-014
rhumerus -42.7988 -3.26051 -90.7437
rradius 30.4252
rwrist 26.0148
rhand 21.2775 -38.6792
rfingers 7.12502
rthumb 45.7233 -61.8881
lclavicle 3.18055e-015 -1.31198e-014
lhumerus -19.2079 -23.0708 99.2062
lradius 92.5296
lwrist 22.8065
lhand -20.9787 -8.25164
lfingers 7.12502
lthumb 5.39488 21.6597
rfemur 0.720906 23.9528 26.8355
rtibia 2.16853
rfoot -12.2466 -22.3377
rtoes 2.15472
lfemur 9.22433 -40.2177 -16.492
ltibia -4.71839
lfoot -14.2161 46.0197
ltoes 3.47297
231
root -0.359502 17.4804 7.48289 5.9106 -0.703379 -7.73757
lowerback 0.37527 0.96942 5.88251
upperback -8.37698 1.6873 0.929974
thorax -8.92999 0.432263 -2.43383
lowerneck -10.0509 -4.40141 -3.32048
upperneck 26.7053 -8.0545 8.76346
head 10.7293 -3.06211 2.71815
rclavicle 4.96962e-016 1.19271e-015
rhumerus -42.8279 -3.60463 -90.479
rradius 31.2517
rwrist 25.118
rhand 21.2111 -39.7228
rfingers 7.12502
rthumb 45.6616 -62.9569
lclavicle 4.96962e-016 1.19271e-015
lhumerus -19.2468 -24.0869 99.482
lradius 92.9852
lwrist 23.2045
lhand -21.6166 -8.10799
lfingers 7.12502
lthumb 4.77899 21.8181
rfemur 0.759109 24.0583 26.8095
rtibia 2.17319
rfoot -12.2627 -22.4317
rtoes 2.20326
lfemur 9.23139 -40.1134 -16.542
ltibia -4.70124
lfoot -14.1731 45.9642
ltoes 3.31707
232
root -0.358539 17.4801 7.48539 5.89907 -0.753139 -7.71326
lowerback 0.401072 0.976375 5.88135
upperback -8.40384 1.69972 0.929982
thorax -8.97413 0.436599 -2.43486
lowerneck -10.1776 -4.428 -3.40957
upperneck 26.9084 -8.06749 8.66921
head 10.8307 -3.07853 2.69835
rclavicle 6.85807e-015 7.55382e-015
rhumerus -42.9264 -3.95869 -90.2977
rradius 32.321
rwrist 23.8358
rhand 20.8665 -40.8065
rfingers 7.12502
rthumb 45.3414 -64.1703
lclavicle 6.85807e-015 7.55382e-015
lhumerus -19.451 -24.8909 99.729
lradius 93.3563
lwrist 23.0886
lhand -22.2501 -7.79563
lfingers 7.12502
lthumb 4.16725 22.1434
rfemur 0.784545 24.0996 26.7909
rtibia 2.17267
rfoot -12.2871 -22.4511
rtoes 2.26537
lfemur 9.27228 -40.0711 -16.5918
ltibia -4.71654
lfoot -14.1796 45.9505
ltoes 3.31726
233
root -0.357399 17.4796 7.4881 5.90264 -0.793021 -7.67815
lowerback 0.408165 0.953432 5.84918
upperback -8.43652 1.67056 0.950809
thorax -9.0182 0.423659 -2.39295
lowerneck -10.2398 -4.42565 -3.42878
upperneck 27.0279 -8.02267 8.49588
head 10.8767 -3.07499 2.64501
rclavicle -2.68359e-015 2.26615e-014
rhumerus -42.9386 -4.13795 -90.1662
rradius 33.5872
rwrist 22.3198
rhand 20.3492 -41.9087
rfingers 7.12502
rthumb 44.8603 -65.4631
lclavicle -2.68359e-015 2.26615e-014
lhumerus -19.7191 -25.3361 99.9499
lradius 93.6653
lwrist 22.6659
lhand -22.4196 -7.48281
lfingers 7.12502
lthumb 4.00359 22.4593
rfemur 0.80234 24.1058 26.7466
rtibia 2.14658
rfoot -12.3167 -22.4175
rtoes 2.36533
lfemur 9.34804 -40.2007 -16.711
ltibia -4.72453
lfoot -14.2739 46.0574
ltoes 3.65135
234
root -0.356467 17.4795 7.4901 5.91178 -0.834761 -7.6328
lowerback 0.403205 0.920667 5.79372
upperback -8.45052 1.62532 0.974483
thorax -9.03586 0.40583 -2.33342
lowerneck -10.218 -4.40603 -3.38558
upperneck 26.9641 -7.94779 8.32014
head 10.8322 -3.05906 2.58268
rclavicle -4.57205e-015 -6.36111e-015
rhumerus -42.8316 -4.12333 -90.1205
rradius 35.1332
rwrist 20.6503
rhand 19.7477 -43.2501
rfingers 7.12502
rthumb 44.2999 -67.0202
lclavicle -4.57205e-015 -6.36111e-015
lhumerus -20.0079 -25.516 100.132
lradius 93.9314
lwrist 22.2582
lhand -22.1408 -7.32483
lfingers 7.12502
lthumb 4.27277 22.6121
rfemur 0.819187 24.1209 26.6864
rtibia 2.11582
rfoot -12.3489 -22.3978
rtoes 2.47587
lfemur 9.37766 -40.234 -16.8014
ltibia -4.72229
lfoot -14.2787 46.0854
ltoes 3.97791
235
root -0.35588 17.4795 7.49111 5.90811 -0.886729 -7.62949
lowerback 0.401694 0.895545 5.75737
upperback -8.44746 1.59163 1.00832
thorax -9.03563 0.393527 -2.2746
lowerneck -10.2425 -4.43987 -3.55867
upperneck 26.9225 -7.96029 8.33463
head 10.8299 -3.0815 2.61471
rclavicle -6.75868e-015 1.94809e-014
rhumerus -42.6613 -3.85479 -90.2383
rradius 37.0213
rwrist 18.8143
rhand 18.8573 -44.6122
rfingers 7.12502
rthumb 43.4691 -68.6903
lclavicle -6.75868e-015 1.94809e-014
lhumerus -20.2827 -25.6031 100.276
lradius 94.1709
lwrist 21.9955
lhand -21.9588 -7.24819
lfingers 7.12502
lthumb 4.44855 22.6851
rfemur 0.851157 24.1272 26.6779
rtibia 2.07481
rfoot -12.3021 -22.3708
rtoes 2.29982
lfemur 9.35753 -40.0649 -16.7674
ltibia -4.73438
lfoot -14.2434 45.961
ltoes 4.09597
236
root -0.355292 17.4793 7.49095 5.90933 -0.959897 -7.655
lowerback 0.414829 0.881574 5.75355
upperback -8.45114 1.57558 1.03554
thorax -9.04965 0.386595 -2.24259
lowerneck -10.0107 -4.39374 -3.22325
upperneck 26.5136 -7.80211 7.88993
head 10.5845 -3.04299 2.41534
rclavicle -6.95746e-016 1.70955e-014
rhumerus -42.4515 -3.27247 -90.5152
rradius 39.2058
rwrist 16.9063
rhand 18.0891 -45.6662
rfingers 7.12502
rthumb 42.751 -69.9995
lclavicle -6.95746e-016 1.70955e-014
lhumerus -20.5606 -25.7134 100.36
lradius 94.3909
lwrist 21.7172
lhand -22.0666 -7.07667
lfingers 7.12502
lthumb 4.34449 22.8588
rfemur 0.866611 24.1597 26.7015
rtibia 2.03809
rfoot -12.1936 -22.3478
rtoes 1.83126
lfemur 9.36511 -40.0323 -16.7486
ltibia -4.71907
lfoot -14.3861 45.9791
ltoes 4.22175
237
root -0.353718 17.4791 7.48908 5.95359 -1.07515 -7.66203
lowerback 0.407194 0.893365 5.76353
upperback -8.4603 1.59203 1.04198
thorax -9.05406 0.393824 -2.24246
lowerneck -10.1468 -4.36526 -3.19584
upperneck 26.5773 -7.7361 7.7628
head 10.6235 -3.01902 2.37131
rclavicle -3.67752e-015 -3.97569e-015
rhumerus -42.201 -2.38975 -90.9092
rradius 41.7965
rwrist 14.9746
rhand 17.2645 -46.6424
rfingers 7.12502
rthumb 41.9787 -71.2396
lclavicle -3.67752e-015 -3.97569e-015
lhumerus -20.8288 -25.8562 100.416
lradius 94.569
lwrist 21.1151
lhand -22.262 -6.83872
lfingers 7.12502
lthumb 4.15581 23.1005
rfemur 0.787721 24.1807 26.6648
rtibia 2.04608
rfoot -12.1323 -22.2693
rtoes 1.54228
lfemur 9.35511 -40.1098 -16.7698
ltibia -4.69565
lfoot -14.5323 46.1589
ltoes 4.25262
238
root -0.351283 17.4786 7.48594 6.02873 -1.21981 -7.69632
lowerback 0.369519 0.927352 5.82115
upperback -8.46298 1.63745 1.03741
thorax -9.03031 0.41212 -2.2821
lowerneck -10.304 -4.348 -3.1473
upperneck 26.6529 -7.70135 7.67036
head 10.6742 -3.00255 2.33189
rclavicle 4.96962e-016 9.14409e-015
rhumerus -41.9489 -1.25817 -91.4649
rradius 44.9092
rwrist 13.2434
rhand 15.5086 -47.7381
rfingers 7.12502
rthumb 40.3302 -72.8637
lclavicle 4.96962e-016 9.14409e-015
lhumerus -21.0422 -26.014 100.429
lradius 94.6576
lwrist 20.19
lhand -22.4693 -6.88052
lfingers 7.12502
lthumb 3.95556 23.0625
rfemur 0.649275 24.1494 26.623
rtibia 2.06419
rfoot -12.0937 -22.0787
rtoes 1.67728
lfemur 9.31785 -40.1401 -16.725
ltibia -4.72255
lfoot -14.5206 46.3507
ltoes 4.12729
239
root -0.349843 17.4775 7.48271 6.05384 -1.36095 -7.76144
lowerback 0.37908 0.946863 5.87065
upperback -8.46104 1.66784 1.05318
thorax -9.03131 0.4239 -2.29541
lowerneck -10.3451 -4.31799 -3.07223
upperneck 26.6815 -7.65816 7.60417
head 10.6841 -2.98108 2.30027
rclavicle -7.55382e-015 8.74653e-015
rhumerus -41.6844 0.157776 -92.1318
rradius 48.326
rwrist 12.0049
rhand 13.4754 -48.6747
rfingers 7.12502
rthumb 38.4146 -74.3599
lclavicle -7.55382e-015 8.74653e-015
lhumerus -21.2694 -26.0863 100.405
lradius 94.7147
lwrist 19.2367
lhand -22.5711 -7.15295
lfingers 7.12502
lthumb 3.8573 22.7919
rfemur 0.600187 24.165 26.6554
rtibia 2.04597
rfoot -12.0558 -21.9295
rtoes 1.70798
lfemur 9.40684 -40.3058 -16.7452
ltibia -4.75065
lfoot -14.5996 46.6486
ltoes 4.21476
240
root -0.349505 17.4778 7.48012 6.03812 -1.5065 -7.76629
lowerback 0.406638 0.959311 5.82869
upperback -8.45789 1.68527 1.07006
thorax -9.04353 0.435949 -2.25606
lowerneck -10.2519 -4.28381 -2.98542
upperneck 26.6281 -7.60203 7.52736
head 10.635 -2.95946 2.26619
rclavicle 1.65985e-014 -1.47101e-014
rhumerus -41.3093 1.68124 -92.7102
rradius 52.5295
rwrist 9.50461
rhand 12.3685 -50.7836
rfingers 7.12502
rthumb 37.3691 -76.7517
lclavicle 1.65985e-014 -1.47101e-014
lhumerus -21.4986 -26.0544 100.402
lradius 94.7803
lwrist 18.4401
lhand -22.5391 -7.33557
lfingers 7.12502
lthumb 3.8882 22.6087
rfemur 0.617891 24.2509 26.6577
rtibia 2.02056
rfoot -12.0271 -21.8902
rtoes 1.39907
lfemur 9.55653 -40.5077 -16.8931
ltibia -4.73064
lfoot -14.911 46.9406
ltoes 4.56954
241
root -0.348833 17.478 7.47687 6.09864 -1.73005 -7.72415
lowerback 0.33945 1.01064 5.7584
upperback -8.45898 1.74425 1.05918
thorax -9.0003 0.470877 -2.23155
lowerneck -10.178 -4.26458 -2.91414
upperneck 26.5766 -7.5706 7.47386
head 10.5939 -2.94746 2.23964
rclavicle -2.78299e-015 6.36111e-015
rhumerus -40.8348 3.21495 -93.2558
rradius 56.8209
rwrist 7.45411
rhand 11.5295 -52.7452
rfingers 7.12502
rthumb 36.5756 -78.9182
lclavicle -2.78299e-015 6.36111e-015
lhumerus -21.6481 -25.9734 100.389
lradius 94.8618
lwrist 17.914
lhand -22.2945 -7.23701
lfingers 7.12502
lthumb 4.12441 22.7028
rfemur 0.504737 24.295 26.5452
rtibia 2.03565
rfoot -11.9814 -21.7356
rtoes 1.25086
lfemur 9.5721 -40.5643 -16.9993
ltibia -4.70164
lfoot -15.3753 47.1387
ltoes 5.23908
242
root -0.346771 17.4767 7.47215 6.22128 -1.98176 -7.68739
lowerback 0.23741 1.07317 5.71163
upperback -8.48337 1.81803 1.04879
thorax -8.96108 0.51082 -2.21992
lowerneck -10.1449 -4.25147 -2.83841
upperneck 26.5894 -7.54556 7.388
head 10.5836 -2.93893 2.19982
rclavicle 7.55382e-015 -5.96354e-015
rhumerus -40.2454 4.71733 -93.7843
rradius 61.1698
rwrist 5.41144
rhand 3.67015 -50.1755
rfingers 7.12502
rthumb 29.1007 -77.9219
lclavicle 7.55382e-015 -5.96354e-015
lhumerus -21.8002 -25.8543 100.378
lradius 94.9904
lwrist 17.7155
lhand -21.9667 -6.91178
lfingers 7.12502
lthumb 4.44088 23.0217
rfemur 0.282888 24.2569 26.3783
rtibia 2.07623
rfoot -11.9472 -21.4565
rtoes 1.29125
lfemur 9.49815 -40.6091 -17.0469
ltibia -4.6867
lfoot -15.7724 47.3779
ltoes 5.89874
